<svg width="216" height="7" viewBox="0 0 216 7" fill="none" xmlns="http://www.w3.org/2000/svg">
<path fill-rule="evenodd" clip-rule="evenodd" d="M4.96536 5.5243C9.54338 5.11023 21.5746 5.08952 54.235 5.04812C105.235 4.98601 145.712 4.53053 156.961 3.86802C157.855 3.80591 86.3649 3.35043 79.0233 3.68169C67.5782 4.21998 12.921 3.7645 1.92262 3.14339C-1.20383 2.97776 -0.0313946 2.39806 2.00638 2.27384C5.18865 2.0668 13.7306 2.08751 37.1512 2.12892C53.6209 2.14962 184.653 1.67344 198.973 0.824589C207.012 0.348407 211.897 -0.0863667 214.131 0.0171514C216.001 0.0999656 216.029 0.348407 214.41 1.03163C213.321 1.4871 214.549 1.75625 215.331 1.88047C216.531 2.08751 216.029 2.79143 214.521 3.35043C212.484 4.11646 208.966 4.09575 210.641 3.32972C211.004 3.16409 211.088 2.75002 209.804 2.83284C206.063 3.08128 179.628 4.77897 172.454 5.06882C95.8559 8.21576 21.1001 5.91767 5.2724 6.6837C-0.338469 6.97355 2.22973 5.77274 4.96536 5.5243Z" fill="#25B4F8"/>
</svg>
