<svg width="266" height="10" viewBox="0 0 266 10" fill="none" xmlns="http://www.w3.org/2000/svg">
<path fill-rule="evenodd" clip-rule="evenodd" d="M6.11475 7.98193C11.7525 7.38333 26.5688 7.35339 66.7894 7.29353C129.595 7.20374 179.441 6.54528 193.295 5.58752C194.395 5.49773 106.357 4.83927 97.3157 5.31815C83.2214 6.09633 15.912 5.43787 2.36768 4.53996C-1.48249 4.30052 -0.0386618 3.46247 2.47082 3.28289C6.38973 2.98359 16.909 3.01353 45.751 3.07339C66.0331 3.10332 227.396 2.41492 245.031 1.18778C254.932 0.499388 260.948 -0.129145 263.698 0.0205059C266.001 0.140227 266.036 0.499388 264.042 1.48708C262.701 2.14555 264.214 2.53464 265.176 2.71422C266.654 3.01352 266.035 4.03115 264.179 4.83926C261.67 5.94668 257.338 5.91675 259.401 4.80933C259.848 4.56989 259.951 3.97129 258.37 4.09101C253.763 4.45017 221.209 6.90444 212.374 7.32346C118.045 11.8728 25.9843 8.55061 6.49286 9.65802C-0.416819 10.077 2.74587 8.34109 6.11475 7.98193Z" fill="#25B4F8"/>
</svg>
