<svg width="28" height="35" viewBox="0 0 28 35" fill="none" xmlns="http://www.w3.org/2000/svg">
<path d="M23.3745 11.0547C23.1429 10.8312 22.8178 10.7297 22.4997 10.7816C22.1811 10.8333 21.9058 11.032 21.758 11.317C21.2496 12.2975 20.6038 13.1985 19.844 13.9951C19.9198 13.4197 19.9579 12.8408 19.9579 12.2605C19.9579 11.1468 19.8076 10.0008 19.5109 8.85382C18.5355 5.08652 15.9778 1.90058 12.4938 0.112937C12.1905 -0.0426481 11.829 -0.0371857 11.5306 0.127504C11.2322 0.29226 11.0367 0.594326 11.01 0.932203C10.7383 4.35574 8.96202 7.47041 6.13371 9.47961C6.09628 9.50637 6.05912 9.53348 6.02196 9.56047C5.94498 9.61636 5.87242 9.66923 5.80464 9.71362C5.79402 9.72065 5.7835 9.7278 5.77318 9.73514C3.99439 10.9994 2.52669 12.6848 1.5285 14.6094C0.514258 16.5672 0 18.668 0 20.8534C0 21.9667 0.150336 23.1128 0.446865 24.2599C2.01173 30.3064 7.49294 34.5294 13.7762 34.5294C21.372 34.5294 27.5515 28.3944 27.5515 20.8534C27.5515 17.1348 26.0681 13.6548 23.3745 11.0547Z" fill="#011632"/>
<path d="M13.2487 25.113C15.5772 25.113 17.4648 23.2391 17.4648 20.9276C17.4648 18.616 15.5772 16.7422 13.2487 16.7422C10.9203 16.7422 9.03271 18.616 9.03271 20.9276C9.03271 23.2391 10.9203 25.113 13.2487 25.113Z" fill="#F8F8F8"/>
</svg>
