<svg width="48" height="48" viewBox="0 0 48 48" fill="none" xmlns="http://www.w3.org/2000/svg">
<path d="M41.2971 4.25077C40.1421 3.21877 38.8243 2.37877 37.3873 1.79827C35.9151 1.20352 34.3416 0.887016 32.7576 0.810516C32.4756 0.797016 32.1928 0.791016 31.9108 0.791016C30.4326 0.794766 28.9146 1.17877 27.5188 1.90252C25.3168 3.04477 22.6896 3.04402 20.4883 1.90252C19.0926 1.17877 17.5738 0.794766 16.0963 0.791016C14.5056 0.791016 12.9156 1.00852 11.4028 1.51102C9.93284 1.99927 8.55733 2.75002 7.34534 3.71377C7.12933 3.88552 6.91709 4.06477 6.71083 4.25002C3.65008 6.99277 2.01659 11.0923 2.22884 15.5C2.43359 19.4893 3.75134 24.8225 8.73359 27.9808C8.70509 29.09 8.68259 30.2315 8.76059 31.3858C8.81384 32.0878 8.87459 32.8835 8.99909 33.674C9.67409 38.0405 11.0061 42.9223 15.7656 46.0205C16.9078 46.7638 18.7551 47.8408 20.0038 46.6693C20.8753 45.851 21.0936 44.3758 21.1551 43.2395C21.1573 43.1863 21.4461 38.2963 24.0381 33.4633C25.0851 35.1905 26.7231 38.6255 27.3028 43.889C27.4656 45.3665 28.1023 47.2093 29.8933 47.2093C30.8256 47.2093 31.6701 46.6933 32.0061 46.4885C34.8246 44.7688 36.7911 42.4303 38.0181 39.341C39.4828 35.6675 39.6268 32.0945 39.3381 27.9463C44.2903 24.77 45.5826 19.463 45.7686 15.4918C45.9921 11.0855 44.3616 6.98827 41.2971 4.25077ZM29.7433 23.552C28.4653 22.6528 26.6856 21.6508 24.6433 20.9045C24.1963 20.741 23.7966 20.627 23.3578 20.9045C21.3208 21.6485 19.5448 22.6468 18.2683 23.5445C18.0463 20.615 17.1883 17.6593 16.3918 15.5143L21.7138 16.8958C23.3653 17.3255 25.1091 17.315 26.7546 16.8658L31.5906 15.506C30.8128 17.6743 29.9623 20.6278 29.7433 23.552ZM24.7926 30.6343C24.5578 30.374 24.2188 30.2383 23.8671 30.266C23.5183 30.2938 23.2018 30.4828 23.0121 30.7775C19.2966 36.5315 18.9238 42.854 18.9103 43.1188C18.9096 43.127 18.9081 43.1345 18.9081 43.1428C15.9666 36.08 17.7958 28.0325 18.1843 26.519C18.6118 26.0038 20.9196 24.218 24.0006 23.0653C27.1281 24.2353 29.4613 26.06 29.8371 26.543C30.2833 28.0123 32.5266 36.221 29.5033 43.361C28.4961 34.8418 24.9456 30.8023 24.7926 30.6343ZM16.8298 44.0188C12.9478 41.393 11.8123 37.1495 11.2213 33.3253C11.1103 32.6218 11.0533 31.8733 11.0038 31.2223C10.9273 30.101 10.9566 28.9843 10.9873 27.8C11.0038 27.1295 10.9288 26.6758 10.3123 26.3173C5.82059 23.708 4.65659 18.935 4.47434 15.3853C4.29509 11.6608 5.65634 8.21152 8.21084 5.92252C9.75059 4.54252 11.6391 3.62152 13.6723 3.24802C15.6463 2.88577 17.6428 2.95927 19.4511 3.89677C22.3003 5.37427 25.7031 5.37502 28.5531 3.89677C29.6316 3.33727 30.7941 3.04027 31.9153 3.03802C33.4911 3.03802 35.0653 3.29152 36.5308 3.88102C37.7293 4.36327 38.8341 5.06152 39.7956 5.92402C42.3508 8.20702 43.7098 11.6518 43.5223 15.3785C43.3558 18.9515 42.1963 23.7545 37.6236 26.3683C37.2868 26.561 37.0146 27.0298 37.0521 27.4415C37.3798 31.5733 37.3138 35.0353 35.9293 38.507C35.0158 40.8073 33.6201 42.6148 31.6791 44.0075C33.8826 38.6353 33.7333 32.3825 32.2603 26.834C31.3513 23.411 32.5423 19.5178 33.7071 16.265C33.9868 15.4843 33.8106 14.6218 33.2473 14.0113C32.6781 13.3978 31.8231 13.1525 31.0198 13.3715L26.1613 14.6938C24.8931 15.0388 23.5506 15.047 22.2771 14.717L16.9551 13.3355C16.1518 13.1263 15.3043 13.3783 14.7441 13.9918C14.1876 14.6015 14.0151 15.461 14.2933 16.2358C15.4048 19.3325 16.6048 22.7983 15.9508 26.126C15.5121 28.3565 15.1086 30.5428 15.0171 32.825C14.9443 34.643 15.0186 36.4693 15.2758 38.2708C15.4843 39.7288 15.8173 41.1853 16.2876 42.5818C16.2876 42.5818 16.6206 43.7608 16.8298 44.0188Z" fill="white" stroke="#25B4F8" stroke-width="0.7"/>
</svg>
