<svg width="76" height="30" viewBox="0 0 76 30" fill="none" xmlns="http://www.w3.org/2000/svg">
<path d="M70.9066 10.0478V7.47232H70.1025V6.90234H72.3569V7.47232H71.5655V10.0478H70.9066ZM72.6831 10.0478V6.90234H73.3212L74.5077 8.46451H74.2101L75.3627 6.90234H76.0004V10.0478H75.3415V7.62432L75.6049 7.68343L74.3845 9.2456H74.2994L73.1214 7.68343L73.3424 7.62432V10.0478H72.6831Z" fill="#011632"/>
<path d="M7.12307 23.6151C8.1848 23.6151 9.12368 23.4226 9.94048 23.0375C10.7569 22.6322 11.3796 22.0242 11.8082 21.2136V23.2503H16.0956V6.65234H11.5021V16.3497C11.5021 17.3022 11.2163 18.0723 10.6448 18.66C10.073 19.2275 9.33818 19.5112 8.44012 19.5112C7.54168 19.5112 6.8069 19.2275 6.23503 18.66C5.66353 18.0723 5.37779 17.3022 5.37779 16.3497V6.65234H0.784668V16.7145C0.784668 18.7816 1.32535 20.4536 2.40749 21.7303C3.51004 22.9869 5.08164 23.6151 7.12307 23.6151Z" fill="#011632"/>
<path d="M19.4526 5.16142H24.0458V0.601562H19.4526V5.16142ZM19.4526 23.2489H24.0458V6.65099H19.4526V23.2489Z" fill="#011632"/>
<path d="M29.4282 23.2505H34.0214V10.6044H37.604V6.6525H34.0214V6.40932C34.0214 4.92988 34.889 4.19016 36.6243 4.19016C36.91 4.19016 37.247 4.22059 37.6348 4.28137V0.390285C37.1653 0.288936 36.6243 0.238281 36.0116 0.238281C33.9293 0.238281 32.3065 0.775342 31.1427 1.84942C29.9997 2.92355 29.4282 4.44351 29.4282 6.40932V6.6525H26.6108V10.6044H29.4282V23.2505Z" fill="#011632"/>
<path d="M39.9668 23.2491H44.5603V14.3118C44.5603 13.0755 44.9073 12.123 45.6012 11.4542C46.2956 10.7652 47.204 10.4207 48.3266 10.4207H49.7657V6.46875H48.786C47.7651 6.46875 46.8567 6.66128 46.0607 7.04633C45.2851 7.41113 44.6828 8.11033 44.2541 9.14388V6.65115H39.9668V23.2491Z" fill="#011632"/>
<path d="M54.3815 29.9989C57.4435 29.9989 59.6586 28.2662 61.0265 24.8007L68.1917 6.65234H63.2616L59.3116 17.3224L55.3612 6.65234H50.4312L57.0149 23.2503L56.7087 23.9495C56.4638 24.4967 56.1472 24.9831 55.7594 25.4086C55.3716 25.8342 54.7285 26.047 53.8301 26.047C53.0953 26.047 52.4013 25.9457 51.7478 25.743V29.4821C52.0952 29.6645 52.493 29.7963 52.9424 29.8773C53.4118 29.9584 53.8917 29.9989 54.3815 29.9989Z" fill="#011632"/>
</svg>
