<svg width="76" height="31" viewBox="0 0 76 31" fill="none" xmlns="http://www.w3.org/2000/svg">
<path d="M70.9066 10.1607V7.56634H70.1025V6.99219H72.3569V7.56634H71.5655V10.1607H70.9066ZM72.6831 10.1607V6.99219H73.3212L74.5077 8.56579H74.21L75.3627 6.99219H76.0004V10.1607H75.3415V7.71945L75.6049 7.77899L74.3845 9.3526H74.2994L73.1214 7.77899L73.3424 7.71945V10.1607H72.6831Z" fill="#011632"/>
<path d="M7.12307 23.8252C8.1848 23.8252 9.12368 23.6313 9.94048 23.2434C10.7569 22.8351 11.3796 22.2227 11.8082 21.4061V23.4577H16.0956V6.73828H11.5021V16.5066C11.5021 17.4661 11.2163 18.2418 10.6448 18.8339C10.073 19.4055 9.33818 19.6913 8.44012 19.6913C7.54168 19.6913 6.8069 19.4055 6.23503 18.8339C5.66353 18.2418 5.37778 17.4661 5.37778 16.5066V6.73828H0.784668V16.8741C0.784668 18.9564 1.32535 20.6406 2.40749 21.9266C3.51004 23.1924 5.08164 23.8252 7.12307 23.8252Z" fill="#011632"/>
<path d="M19.4526 5.23777H24.0458V0.644531H19.4526V5.23777ZM19.4526 23.4577H24.0458V6.73824H19.4526V23.4577Z" fill="#011632"/>
<path d="M29.4282 23.458H34.0214V10.7194H37.604V6.73852H34.0214V6.49355C34.0214 5.00328 34.889 4.25815 36.6243 4.25815C36.91 4.25815 37.247 4.2888 37.6348 4.35004V0.43046C37.1653 0.32837 36.6243 0.277344 36.0116 0.277344C33.9293 0.277344 32.3065 0.818336 31.1427 1.90028C29.9997 2.98227 29.4282 4.51336 29.4282 6.49355V6.73852H26.6108V10.7194H29.4282V23.458Z" fill="#011632"/>
<path d="M39.9668 23.4579H44.5603V14.4551C44.5603 13.2098 44.9073 12.2504 45.6012 11.5767C46.2956 10.8825 47.204 10.5355 48.3266 10.5355H49.7657V6.55469H48.786C47.7651 6.55469 46.8567 6.74862 46.0607 7.1365C45.2851 7.50397 44.6828 8.20828 44.2541 9.24941V6.73842H39.9668V23.4579Z" fill="#011632"/>
<path d="M54.3815 30.2558C57.4435 30.2558 59.6586 28.5103 61.0265 25.0195L68.1917 6.73828H63.2616L59.3116 17.4865L55.3612 6.73828H50.4312L57.0149 23.4577L56.7087 24.1621C56.4638 24.7133 56.1472 25.2032 55.7594 25.6319C55.3716 26.0606 54.7285 26.275 53.8301 26.275C53.0953 26.275 52.4013 26.1729 51.7478 25.9687V29.7352C52.0952 29.9189 52.493 30.0516 52.9424 30.1333C53.4118 30.2149 53.8917 30.2558 54.3815 30.2558Z" fill="#011632"/>
</svg>
